<?xml version="1.0" standalone="no"?>
<!DOCTYPE svg PUBLIC "-//W3C//DTD SVG 20010904//EN"
 "http://www.w3.org/TR/2001/REC-SVG-20010904/DTD/svg10.dtd">
<svg version="1.0" xmlns="http://www.w3.org/2000/svg"
 width="900.000000pt" height="900.000000pt" viewBox="0 0 900.000000 900.000000"
 preserveAspectRatio="xMidYMid meet">
<metadata>
Created by potrace 1.10, written by Peter Selinger 2001-2011
</metadata>
<g transform="translate(0.000000,900.000000) scale(0.100000,-0.100000)"
fill="#303618" stroke="none">
<path d="M0 4500 l0 -4500 4500 0 4500 0 0 4500 0 4500 -4500 0 -4500 0 0
-4500z m5557 1769 c54 -12 102 -25 107 -30 6 -5 17 -9 26 -9 9 0 47 -16 85
-35 255 -131 400 -349 435 -655 10 -89 10 -121 -3 -207 -9 -56 -21 -111 -26
-122 -6 -11 -11 -27 -11 -35 0 -25 -59 -145 -103 -208 -103 -150 -252 -252
-458 -312 -31 -9 -66 -16 -79 -16 -12 0 -39 -5 -59 -10 -20 -6 -99 -14 -175
-18 -88 -4 -141 -11 -143 -18 -2 -6 18 -31 44 -55 165 -151 265 -265 478 -549
205 -274 344 -427 510 -564 33 -27 64 -53 70 -58 21 -19 -24 -28 -142 -28 -67
0 -134 5 -148 10 -15 6 -59 37 -98 69 -115 96 -222 221 -477 561 -174 231
-168 224 -194 250 -27 27 -36 25 -36 -7 -3 -228 -48 -469 -119 -638 -55 -132
-158 -300 -235 -384 -86 -94 -251 -241 -271 -241 -2 0 -24 -13 -47 -29 -95
-64 -276 -137 -408 -165 -163 -33 -214 -36 -723 -36 -460 0 -516 2 -521 16 -9
24 -7 2907 3 2922 6 10 70 13 292 13 156 0 290 -1 297 -1 8 0 12 -9 10 -22 -3
-22 -7 -23 -146 -28 -135 -5 -144 -6 -175 -31 -20 -16 -38 -43 -45 -67 -9 -29
-12 -361 -12 -1334 0 -1398 -2 -1353 51 -1399 33 -28 87 -32 407 -27 307 5
339 9 497 58 175 54 320 139 459 271 86 81 176 192 216 265 12 21 30 54 41 72
10 18 31 61 45 95 13 34 29 71 34 82 28 65 65 215 84 342 30 191 13 550 -27
601 -6 8 -29 22 -51 33 -34 15 -69 19 -196 21 -142 3 -155 5 -158 22 -2 10 0
22 5 27 5 5 165 9 364 9 280 0 373 4 444 16 340 61 553 236 637 527 31 105 31
379 1 484 -82 278 -272 444 -598 520 -72 16 -129 18 -575 18 -574 0 -536 7
-565 -100 -13 -49 -15 -102 -13 -278 l3 -218 35 -18 c19 -10 55 -26 80 -36
292 -112 545 -339 697 -625 27 -52 48 -101 46 -107 -3 -9 -35 -13 -113 -13
-105 0 -109 1 -129 26 -12 15 -21 32 -21 38 0 14 -27 67 -63 123 -15 24 -27
45 -27 49 0 16 -103 138 -178 211 -86 84 -179 153 -265 194 -41 20 -49 21 -58
9 -6 -10 -9 -386 -7 -1070 1 -580 -1 -1061 -5 -1067 -12 -19 -191 -18 -206 0
-8 10 -11 412 -11 1466 0 799 2 1456 5 1462 4 5 300 9 760 9 731 0 758 -1 852
-21z"/>
</g>
</svg>
